<?xml version="1.0" encoding="utf-8"?>
<!-- Generator: Adobe Illustrator 26.2.1, SVG Export Plug-In . SVG Version: 6.00 Build 0)  -->
<svg version="1.0" id="genkaiya_xA0_画像_00000147907965776370687990000017685005631043012739_"
	 xmlns="http://www.w3.org/2000/svg" xmlns:xlink="http://www.w3.org/1999/xlink" x="0px" y="0px" viewBox="0 0 898 898"
	 enable-background="new 0 0 898 898" xml:space="preserve">
<g>
	<path fill="#FEFEFE" d="M780,704c-0.11,0.61-0.03,1.35-0.36,1.81c-2.24,3.15-3.57,6.89-6.49,9.63c-1.31,1.24-2.12,3.02-3.16,4.56
		c-6.75,4.8-12.71,10.13-22.37,9.7c-19.29-0.87-38.65-0.69-57.95-0.05c-7.77,0.26-14.08-2.93-20.86-5.25
		c-6.71-2.3-13.18-5.12-20.56-5.03c-17.99,0.21-35.98,0.09-53.97,0.06c-3.36-0.01-6.49,0.5-9.69,1.81
		c-5.51,2.27-11.51,1.06-17.29,1.48c-1.84,0.13-3.74-0.12-5.27,1.08c-3.6,2.82-7.64,2.85-11.89,2.23c-5.55-0.81-10.94-0.1-16.1,2.13
		c-0.92,0.4-1.84,0.95-2.82,0.95c-4.66,0-7.85,1.79-9.42,6.48c-0.86,2.58-3.34,3.67-6.02,3.73c-3.22,0.07-5.76,1.23-7.73,3.83
		c-1.99,2.62-4.87,3.35-8.01,3.27c-3.07-0.07-5.98,0.28-8.37,2.52c-0.73,0.69-1.71,1.1-2.72,1.18c-15.28,1.31-30.24,6.53-45.85,3.9
		c-2.7-0.46-4.97,0.27-6.79,2.25c-2.77,3.03-6.14,4.44-10.25,4.18c-3.41-0.22-6.18,0.85-8.02,3.96c-1.56,2.64-4.23,3.09-6.98,2.98
		c-3.76-0.14-7.25,0.53-10.52,2.5c-4.32,2.6-9.03,1.94-13.63,1.19c-3.43-0.55-6.45-0.52-9.38,1.87c-3.05,2.48-7.26,1.93-10.88,3.13
		c-8.19,2.72-16.16,7.01-25.39,5.43c-3.47-0.59-6.84,0.09-9.85,2.52c-2.6,2.1-6.07,1.67-9.18,1.57c-9.83-0.3-19.66-0.1-29.48-0.15
		c-3.39-0.02-6.65-0.24-9.47-2.44c-0.92-0.72-2.05-1.42-3.19-1.29c-9.38,1.07-17.63-4.67-26.87-4.41c-2.22,0.06-4.21-0.95-6.11-2
		c-4.26-2.35-8.57-4.43-13.67-4.02c-1.68,0.13-3.24-0.61-4.61-1.68c-0.92-0.72-1.84-1.5-3.03-1.68c-11.62-1.78-22.21-7.1-33.51-9.81
		c-8.65-2.07-16.96-5.22-25.58-7.23c-4.94-1.15-10.24-0.19-14.92-3.24c-2.51-1.63-4.37-3.21-5.28-6.19
		c-2.08-6.78-4.52-8.51-11.38-8.44c-2.6,0.03-4.43-0.99-5.92-3.03c-5.33-7.31-12.45-12.94-18.79-19.26
		c-3.32-3.31-8.31-5.17-12.53-7.65c-3.03-1.78-5.84-3.53-8.39-5.95c-7.07-6.72-13.3-14.21-22.06-19.29
		c-5.23-3.04-7.1-9.97-7.67-16.05c-0.56-5.95-0.59-11.62-3.74-17.19c-3.03-5.35-5.03-11.4-6.04-17.62
		c0.08-4.87-1.48-9.57-1.08-14.52c0.38-4.78,0.15-9.61,0.04-14.42c-0.03-1.36-0.62-2.71-0.95-4.06c4.32-0.67,7.16,1.6,9.45,4.84
		c2.58,3.64,10.25,5.18,13.82,2.7c2.62-1.82,2.86-5.63,0.59-8.94c-1.38-2-3.79-3.36-3.85-6.04c0.4-1.04,1.21-1.58,1.97-1.52
		c7.45,0.62,14.64-1.6,21.36-3.79c10.67-3.47,21.42-1.83,32.07-3c3.21-0.35,6.3,0.18,9.45,0.25c5.82,0.12,11.66,0.45,17.45-0.64
		c8.5-1.6,15.3,1.85,21.17,7.53c4.86,4.7,12.61,3.47,15.32-2.72c1.05-2.39,0.84-4.95-1.97-5.81c-6.43-1.95-11.7-6.27-18.03-8.48
		c-3.21-1.12-6.25-2-9.64-2c-19.17,0.05-38.33,0.05-57.5,0c-3.4-0.01-6.37,1.08-9.56,2.21c-9.43,3.34-18.77,7.43-29.3,6.04
		c-3.62-0.48-5.11-2.02-5.12-5.33c-0.01-3.73-0.31-7.24-2.95-10.28c-1.39-1.6-0.71-3.8-0.58-5.8c0.43-6.58,1.24-12.95-2.49-19.36
		c-2.44-4.2-1.94-9.71,0.62-14.42c0.48-0.88,1.48-1.65,1.47-2.57c-0.06-7.53,4.39-14.28,3.71-21.88c-0.62-6.9,0.28-13.63,2.27-20.23
		c0.69-2.28,0.88-4.57,0.84-6.91c-0.06-3.07,0.38-5.98,2.38-8.47c0.31-0.39,0.73-0.85,0.72-1.29c-0.11-7.27,3.75-13.56,4.98-20.51
		c1.36-7.65,3.42-15.13,7.76-21.74c0.55-0.83,1.55-1.6,1.53-2.53c-0.17-6.23,3.66-11.26,5.1-17.04c1.76-7.08,0.73-14.26,2.42-21.25
		c1.48-6.1,3.49-11.76,8.16-16.2c4.96-4.71,8.43-10.2,9.26-17.21c0.44-3.72,2.86-6.35,5.94-8.26c5.11-3.17,8.17-7.89,11.52-12.77
		c4.58-6.66,9.25-13.32,17.67-16.88c5.02-2.12,11.29-5.91,13.77-10.42c4.92-8.93,13.7-13.98,19.01-22.27
		c3.01-4.7,8.92-5.56,13.54-8.05c7.27-3.92,14.76-7.23,21.6-12.13c4.44-3.17,8.27-7.47,12.68-9.8c5.54-2.93,9.55-7.74,15.21-10.26
		c2.77-1.23,5.34-2.59,8.49-2.41c1.54,0.09,3.02-0.51,4.11-1.58c4.48-4.41,10.31-6.59,15.66-9.55c1.49-0.83,2.76-1.85,3.82-3.15
		c3.84-4.71,8.63-7.15,14.85-6.54c3.05,0.3,5.96-0.41,8.54-2.22c0.96-0.67,2.02-1.26,3.19-1.36c11.48-1.01,20.54-7.95,30.59-12.46
		c0.9-0.4,1.72-1.36,2.66-1.31c8.6,0.44,15.52-5.48,23.94-6.17c2.24,1.79,1.9,4.5,1.63,6.84c-0.67,5.91,1.71,11.09,3.32,16.48
		c0.61,2.05,2.07,2.95,4.07,3.09c3.37,0.25,6.67-0.41,9.87-1.26c2.81-0.75,3.7-4.11,2.19-7.03c-0.47-0.91-1.09-1.79-2-2.17
		c-7.61-3.2-7.66-9.65-7.12-16.37c0.39-4.91,2.52-7.33,7.37-7.86c2.72-0.3,5.02-1.1,7.37-2.62c4.35-2.82,9.41-1.59,14.15-1.32
		c6.53,0.38,12.94,0.4,19.22-1.63c0.97-0.31,2.02-0.69,2.9-0.09c5.43,3.74,11.59,2.28,17.49,2.47c4.99,0.16,10-0.02,15,0.05
		c3.74,0.05,7.15-0.68,10.54-2.46c7.25-3.82,19.11-1.87,24.85,3.98c2.84,2.9,5.88,4.82,10.08,4.53c1.32-0.09,2.9-0.11,3.86,0.77
		c4.32,4,9.59,3.15,14.7,3.15c14,0.03,28,0,42,0.01c6.97,0.01,13.19,2.8,19.4,5.46c3.36,1.44,6.6,3.28,10.1,4.24
		c5.21,1.43,9.63,5.04,15.44,4.97c2.48-0.03,3.52,2.51,3.66,5.18c0.4,7.62,4,10.4,11.08,7.21c5.45-2.46,8.44-1.13,11.89,2.98
		c2.53,3.03,5.94,5.33,8.46,8.46c0.74,0.92,1.65,1.97,2.8,1.98c8.62,0.06,14.11,7.15,21.66,9.59c1.25,0.4,2.39,1.65,3.68,1.41
		c5.05-0.97,8.66,2.33,12.28,4.57c3.66,2.26,7.19,3.17,11.27,2.97c3.29-0.16,6.36,0.18,7.99,3.73c0.5,1.08,1.54,1.9,2.76,1.93
		c6.21,0.17,10.66,4.21,15.67,7.03c1.18,0.67,2.4,1.13,3.7,1.44c4.19,1.01,7.67,2.79,9.71,7.02c1.46,3.02,4.73,4.4,7.27,6.46
		c6.91,5.58,16.08,8.06,21.38,15.75c1.99,2.89,4.63,4.5,8.28,4.88c3.49,0.36,6.58,2.34,9.7,3.84c2.71,1.3,5.2,2.93,8.3,3.16
		c1,0.08,2.27,0.43,2.57,1.33c1.67,4.91,6.25,7.62,8.69,12.06c4.34,7.89,10.48,14.59,19.47,16.91c8.89,2.29,13.44,8.83,17.45,15.84
		c2.3,4.02,4.77,7.99,6.89,12.14c0.95,1.87,2.76,2.72,4.54,3.72c3.85,2.15,6.27,5.43,6.23,10.03c-0.02,2.58,0.28,4.97,2.09,6.98
		c1.29,1.43,1.65,3.23,1.85,5.08c0.18,1.69,0.47,3.55,1.84,4.53c4.36,3.11,5.02,8.5,7.99,12.44c1.37,1.82,1.12,4.13,1.13,6.29
		c0.03,8.17,0.29,16.35-0.07,24.5c-0.34,7.63,1.77,14.39,5.69,20.75c0.26,0.43,0.76,0.9,0.67,1.31c-1.65,7.22,3.78,13.1,3.75,20.03
		c-0.02,4.04-0.09,7.93-2.71,11.41c-1.67,2.21-1.21,4.6,0.3,6.98c3.72,5.87,3.32,12.2-0.93,17.51c-1.05,1.31-2.3,2.53-2.43,4.27
		c-0.26,3.47-1.55,6.02-5.16,7.09c-1.3,0.38-2.44,1.51-2.55,2.88c-0.51,6.61-4.62,12.49-3.63,19.45c0.47,3.27-0.06,6.66,0.11,9.99
		c0.25,4.86-0.36,9.19-4.58,12.5c-2.79,2.19-2.02,5.72-2.54,8.81c-1.47,8.68-1.76,17.69-6.78,25.48c-1.45,2.25-3.26,3.28-5.76,3.19
		c-6.91-0.23-13.69-0.81-20.61-1.94c-12.02-1.97-24.95-3.78-36.15,4.3c-3.6,2.6-7.77,1.88-11.62,1.74
		c-5.68-0.21-10.38,1.82-14.95,4.67c-1.13,0.71-2.25,1.93-3.51,1.79c-8.54-0.94-14.16,5.15-20.67,8.74
		c-6.81,3.76-14.35,5.21-21.37,8.22c-2.85,1.23-6.22,0.96-9.38,0.26c-3.2-0.71-5.17,0.55-5.86,3.76c-0.8,3.72,0.74,7.19,4.05,7.31
		c7.56,0.27,15.06,1.34,22.67-1.35c10.24-3.61,19.29-9.61,29.41-13.35c9.29-3.43,18.58-6.75,28.15-9.47
		c6.26-1.78,12.78-2.66,19.04-5.08c7.12-2.75,15.64-3.38,23.06,1.2c2.47,1.52,5.08,1.4,7.72,1.44c8.26,0.13,12.84,6.36,8.72,13.5
		c-3.12,5.42-3.07,10.69-3.07,16.27c0,4.55,0.42,9.12-4.98,11.34c-1.22,0.5-1.82,2.04-1.81,3.4c0.05,4.18-1.9,7.73-3.48,11.37
		c-2.26,5.21-5.75,8.94-11.99,8.95c-2.44,0-4.89,0.37-5.52,3.23c-1.06,4.81-4.2,4.36-7.67,3.32c-0.8-0.24-1.52-0.67-2.25-1.07
		c-5.63-3.09-6.74-2.52-7.34,3.89c-0.17,1.84-0.2,3.79-1.42,5.23C775.23,696.43,776.72,700.26,780,704z"/>
	<path fill="#030305" d="M780,704c-0.62-0.12-1.39-0.04-1.82-0.39c-1.16-0.93-2.18-2.04-3.16-2.97c0-2.18,0-4.18,0-6.15
		c1.31-1.31,2.61-2.61,3.94-3.94c0-2.95,0-5.94,0-8.81c1.51-2.56,3.73-3.18,7.07-2.5c0.34,0.39,1.12,1.25,1.84,2.15
		c0.99,1.25,2.19,1.72,3.83,1.69c1.32-0.03,2.65,0.53,4.18,0.87c0-1.91,0-3.7,0-5.21c1.03-1.08,1.83-1.92,2.61-2.74
		c3.05,0,6.05,0,9.03,0c2.14-2.14,4.26-4.26,6.43-6.43c0-1.27,0-2.58,0-4.27c0.97-0.81,2.11-1.76,3.09-2.58c0-2.97,0-5.63,0-8.28
		c1.95-1.68,3.27-4.44,6.77-3.24c0-7.41,0-14.52,0-21.68c1.32-1.07,2.54-2.06,4.19-3.4c-0.17-3.56,0.64-7.79-1.5-11.96
		c-4.33,0-8.96,0-13.96,0c-0.99-1.23-2.06-2.55-3.3-4.09c-6.28,0-12.93,0-19.81,0c-1.08,1.2-2.31,2.55-3.47,3.83
		c-3.54,0-6.84,0-10.31,0c-0.91,1.12-1.84,2.26-2.51,3.09c-3.26,0-5.92,0-8.66,0c-0.87,0.95-1.77,1.93-2.78,3.02
		c-1.13,0-2.27,0.04-3.41-0.01c-2.35-0.1-4.42,0.02-6.13,2.22c-1.92,2.45-4.99,1.75-7.67,1.79c-0.97,0.97-1.92,1.92-2.93,2.93
		c-1.24,0-2.56,0-4.07,0c-1.1,1.33-2.27,2.73-3.26,3.93c-1.93,0.1-4.01-0.42-4.73,0.34c-2.82,2.99-7.92,2.45-9.66,6.79
		c-1.81,0-3.46-0.09-5.09,0.04c-0.73,0.06-1.7,0.35-2.09,0.88c-1.48,1.99-3.41,2.17-5.67,2.13c-6.5-0.12-13-0.04-19.38-0.04
		c-1.26-1.21-2.45-2.36-3.6-3.47c0-2.75,0-5.41,0-7.81c1.26-1.36,2.39-2.57,3.46-3.73c2.02,0.12,4.15-0.62,5.52,1.48
		c0.12,0.18,0.58,0.38,0.67,0.31c2.4-1.92,5.18,0.01,7.91-0.56c0.95-1.13,1.91-2.27,2.55-3.03c3.36-0.44,6.22-0.77,9.06-1.24
		c0.55-0.09,1.05-0.72,1.5-1.17c1.06-1.04,1.98-2.27,3.77-1.8c0.31,0.08,0.86,0.15,0.97-0.01c1.57-2.37,4.22-2.57,6.52-3.62
		c2.26-1.03,4.04-3.16,6.01-4.82c0.51-0.43,0.95-0.94,1.48-1.47c3.25,0,6.57,0,10.41,0c0.76-0.87,1.7-2.03,2.73-3.1
		c0.42-0.43,1.02-0.78,1.59-0.95c3.16-0.9,3.17-0.88,5.39-3.08c1.89,0.51,4.19-0.96,5.94,1.05c1.58-1.93,3.72-0.78,5.59-0.95
		c2.14-0.2,4.31-0.05,6.44-0.05c2.13-3.95,2.13-3.95,7.35-4.01c0.27-0.35,0.77-1,1.28-1.65c0.41-0.52,0.83-1.03,1.08-1.34
		c9.87,0,19.37,0,28.76,0c1.03,1.13,2.01,2.22,2.6,2.87c7.59,0,14.37,0,21.51,0c-0.87-3.48,1-5.22,3.86-6.32c0-3.65,0-7.3,0-11.09
		c0.94-0.83,1.94-1.71,2.91-2.58c0-4.78,0-9.42,0-14.34c2.27-1.87,3.94-4.56,7.01-6.1c0-9.03,0-18.33,0-27.93
		c1.12-0.77,2.35-1.62,3.09-2.13c0-3.51,0-6.17,0-8.89c1.18-1.13,2.38-2.27,3.66-3.5c1.18,0,2.51,0,3.99,0
		c0.12-0.41,0.32-0.84,0.36-1.29c0.06-0.83,0.07-1.67,0.01-2.5c-0.2-2.76,0.01-5.28,3.25-6.22c0.92-1.9,3.07-3.07,2.82-5.72
		c-0.28-2.95-0.06-5.95-0.06-8.52c-1.55-1.18-2.82-2.14-3.99-3.04c0-2.2,0-4.2,0-6.25c1.28-1.24,2.59-2.51,3.92-3.8
		c0-4.69,0-9.33,0-13.96c-1.33-1.02-2.69-2.07-4.14-3.18c0.47-3.78,0.93-7.44,1.34-10.72c-1.63-1.21-2.91-2.16-4.11-3.05
		c0-1.86,0-3.51,0-5.28c-0.94-0.86-1.92-1.75-2.97-2.72c0-13.81,0-27.6,0-41c-1.57-1.17-2.84-2.12-4.03-3.01c0-1.86,0-3.52,0-5.11
		c-2.95-1.39-4.67-4.08-7.01-6.08c0-2.35,0-4.68,0-7.03c-2.84-1.11-4.66-2.88-4.03-6.23c0.29-1.55-0.7-3.33,0.85-4.65
		c-0.93-2.32-4.56-2.94-3.82-6.19c-0.38-0.19-0.69-0.48-0.93-0.44c-3.49,0.61-5.29-1.26-6.76-4.12c-1.72-3.36-3-7.08-6.33-9.29
		c0-1.43,0-2.76,0-4.14c-1.75-1.74-3.37-3.7-5.34-5.2c-1.77-1.35-1.71-3.02-1.65-5c-1.29-0.18-2.71-0.04-3.74-0.61
		c-1.09-0.61-1.81-1.89-2.48-2.65c-1.93,0-3.43,0-5.07,0c-1.83-0.92-2.71-3.8-5.65-3.08c-0.51,0.12-1.4-0.7-1.91-1.27
		c-1.95-2.17-4.61-3.73-5.68-6.64c-3.37-0.36-3.26-4.19-5.57-5.63c-0.46-0.29-0.96-1.1-0.88-1.58c0.46-2.88-1.64-4.71-3.45-5.46
		c-3.51-1.46-3.92-3.91-3.54-7.17c-2.67,0-5.12,0-7.4,0c-1.47-1.47-2.77-2.77-4.11-4.11c-1.27,0-2.59,0-4.28,0
		c-0.81-0.96-1.76-2.09-2.61-3.09c-2.6,0-4.92,0-6.73,0c-4.55-4.81-8.84-9.34-13.21-13.96c-0.66,0-1.31-0.06-1.94,0.01
		c-2.71,0.32-4.65-0.43-5.85-3.17c-0.63-1.43-2.09-2.49-3.3-3.87c-2.99,0.31-5.81,0.15-6.84-3.6c-0.23-0.84-1.36-1.42-2.05-2.14
		c-1.63-1.69-1.62-1.69-1.78-5.04c-1.64-0.56-4.09,0.54-5.11-1.85c-1.78-0.16-3.56-0.32-5.68-0.51c-0.77-1-1.74-2.26-2.83-3.69
		c-4.55-0.21-4.55-0.21-6.59-3.99c-2.68,0-5.47,0-8.08,0c-1-1-1.83-1.83-2.65-2.65c0-1,0-2,0-3.01c-0.12-0.11-0.23-0.33-0.35-0.33
		c-4.65-0.02-9.29-0.01-14.08-0.01c-1.04-1.18-2.07-2.35-3.54-4c-0.64,0-2.1,0-3.38,0c-0.65-0.65-1.25-1.05-1.57-1.6
		c-1.2-2.08-2.37-3.58-5.03-1.62c-0.76,0.56-2.27,0.09-3.59,0.09c-1.39-1.67-2.98-3.15-5.41-3.49c-2.11-0.3-3.92-1.33-5.19-3.15
		c-2.99-0.08-4.35-2.55-6.41-4.36c-1.65,0-3.5-0.22-5.28,0.05c-2.36,0.37-3.96-0.74-4.98-2.45c-1.96-3.26-4.43-5.86-7.75-7.72
		c-0.84-0.47-1.52-1.31-2.12-2.1c-1.17-1.52-2.23-3.12-3.6-5.07c-3.98,5.26-9.48,4.34-14.68,4.17c-1.02-0.03-2.67-1.39-2.86-2.36
		c-0.55-2.81-2.69-5.73,0.21-8.78c-1.17-0.87-2.22-1.65-3.72-2.77c-2.22,0-5.21,0-8.41,0c-0.89-1.19-1.84-2.45-2.94-3.91
		c-1.67,0-3.65,0-5.82,0c-1.71-2.31-3.89-3.87-6.92-2.98c-1.43-1.43-2.73-2.73-4.05-4.05c-2.3,0-4.62,0-7.04,0
		c-0.87-0.94-1.77-1.91-2.54-2.75c-0.52-0.13-0.82-0.27-1.12-0.27c-18.67-0.01-37.33-0.1-56,0.07c-3.31,0.03-5.22-1.07-6.24-4.06
		c-3.36,0-6.69,0-10.02,0c-3.29-3.33-6.57-6.64-9.84-9.95c-5.73,0-11.38,0-17.33,0c-2.23,3.11-5.65,3.97-9.54,3.95
		c-10.82-0.06-21.64-0.02-32.37-0.02c-1.39-1.39-2.69-2.69-4.01-4.01c-0.92,0.95-1.85,1.9-2.72,2.81c-0.39,0.08-0.7,0.17-1.01,0.2
		c-3.7,0.32-7.51-0.79-11.1,0.97c-0.54,0.26-1.41,0.25-1.97,0c-2.78-1.25-5.7-0.94-8.6-0.96c-2.83-0.02-5.67,0-8.27,0
		c-1.16,1.45-2.23,2.8-3.18,4c-2.8,0-5.3,0-7.65,0c-1.19,1.26-2.32,2.45-3.89,4.12c0,3.96,0,8.75,0,13.33
		c1.81,1.25,3.35,2.97,5.2,3.41c2.26,0.54,2.94,2.51,4.7,3.47c0,2.03,0.05,4.01-0.02,5.99c-0.06,1.6-1.77,3.53-3.26,3.67
		c-4.68,0.45-9.37,0.84-13.8,1.23c-2.08-1.53-3.51-3.08-2.91-5.54c0.44-1.79-0.51-3.49-1.43-4.35c-1.61-1.52-1.6-3.11-1.6-4.91
		c0.01-4.33,0-8.65,0-13.69c-1.44,1.31-2.53,2.3-3.66,3.32c-2.3,0-4.62,0-6.67,0c-1.06,1.43-2,2.71-2.9,3.91c-3.85,0-7.51,0-11.49,0
		c-0.75,0.83-1.68,1.78-2.52,2.8c-0.8,0.97-1.74,1.31-3,1.29c-0.71-0.01-1.66,0.33-2.09,0.85c-1.39,1.66-3,2.39-5.17,2.14
		c-0.54-0.06-1.4,0.26-1.66,0.68c-1.57,2.53-4.04,2.45-6.02,2.28c-1.25,1.59-2.22,2.84-3.13,3.99c-3.53,0-6.86,0-10.29,0
		c-2.27,3.1-5.32,4.39-9.25,4.05c-2.81-0.25-5.66-0.05-7.87-0.05c-4.78,2.37-7.34,6.36-10.55,9.91c-1.41,0-2.86,0-4.22,0
		c-2.17,4.04-2.17,4.04-6.96,4.09c-2.27,2.35-4.59,4.74-6.89,7.12c-2.48-0.56-5.05,0.77-7.22-1.06c-1.28,1.28-2.58,2.58-3.94,3.94
		c-0.59,0-1.25-0.02-1.91,0c-3,0.13-3.22,0.11-3.51,3.29c-0.17,1.83-1.62,2.36-2.38,3.53c-0.33,0.06-0.66,0.21-0.95,0.17
		c-3.92-0.6-7.02,0.32-8.64,4.36c-0.46,1.15-1.69,1.73-2.26,3.06c-0.72,1.69-2.36,3.01-4.79,2.66c-1.94-0.28-3.24,0.91-4.35,2.61
		c-1.07,1.64-2.75,2.88-4.19,4.31c-1.31,0-2.64,0-4.12,0c-0.85,0.89-1.75,1.87-2.7,2.8c-0.45,0.45-1.08,1.23-1.48,1.15
		c-2.84-0.59-4.11,1.58-5.75,3.09c-1.35,0-2.67,0-3.98,0c-1.31,1.31-2.61,2.61-3.94,3.94c-1.29,0-2.61,0-4.22,0
		c-1.25,1.32-2.67,2.71-3.96,4.23c-0.59,0.69-0.91,1.61-1.36,2.43c-0.37,0.68-0.63,1.5-1.17,1.99c-0.8,0.72-1.93,1.09-2.7,1.84
		c-0.65,0.62-0.92,1.62-1.47,2.37c-0.59,0.81-1.33,1.37-2.5,1.25c-0.34-0.04-0.8,0.67-1.15,1.07c-0.31,0.36-0.48,0.85-0.82,1.15
		c-1.03,0.9-2.42,1.55-3.11,2.65c-0.71,1.13-0.44,2.86-1.15,3.99c-1.43,2.29-3.18,4.38-4.9,6.47c-0.33,0.4-1.13,0.54-1.73,0.57
		c-1.31,0.08-2.63,0.03-3.47,0.03c-2.12,2.87-4,5.42-5.83,7.9c-1.93,0-3.57,0-5.4,0c-4.3,4.63-8.64,9.3-12.96,13.99
		c-0.3,0.33-0.62,0.82-0.61,1.23c0.12,3.26-1.95,5.35-4.03,7.33c-2.42,2.3-4.62,4.67-7.87,6.27c-3.39,1.66-5.93,5.12-5.15,9.69
		c0.16,0.97,0.02,2,0.02,3.14c-1.7,1.37-3.06,3.02-3.55,5.4c-0.24,1.14-1.21,2.21-2.06,3.12c-2.05,2.19-4.2,4.28-6.35,6.38
		c-1.18,1.16-2.19,2.19-2.13,4.16c0.06,2.12-2.27,3.43-2.78,5.29c-0.56,2.01-0.1,4.3-0.14,6.46c-0.02,1.11-2.44,0.99-1.34,2.92
		c0.58,1.02,0.31,2.54,0.34,3.84c0.04,1.83,0.02,3.67,0.01,5.5c0,0.66,0.2,1.69-0.12,1.91c-2.81,1.91-1.84,4.76-1.82,7.26
		c0.02,3.2-2.31,4.8-4.05,6.74c0,2.6,0,5.1,0,8.06c-1.11,0.89-2.44,1.96-4,3.22c0.46,2.82-0.18,5.45-3.74,6.46
		c1.23,1.86,0.53,3.97,0.81,6.14c-1.08,0.9-2.21,1.85-3.06,2.56c0,3.86,0,7.19,0,10.54c-1.3,1.29-2.6,2.58-3.94,3.91
		c0,3.62,0,7.27,0,11.06c-1.31,1.18-2.66,2.39-4.06,3.65c0,3.12,0.02,6.09-0.01,9.06c-0.01,1.77,0.49,3.71-1.52,4.88
		c-0.23,0.13-0.5,0.57-0.44,0.78c0.71,2.84-0.98,5.35-1.09,8.09c-0.08,1.86,0.81,3.85-0.82,5.69c-0.45,0.5,0.78,2.27,0.84,3.48
		c0.14,2.99,0.05,6,0.05,8.89c-1.13,1.03-2.22,2.01-2.95,2.68c0,4.38,0,8.03,0,11.8c-1.31,1.2-2.65,2.43-3.94,3.61
		c0,4.17,0,8.15,0,12.12c1.36,1.31,2.77,2.68,3.9,3.77c0,4.24,0.14,7.91-0.04,11.57c-0.16,3.35-0.66,6.69-0.98,9.74
		c1.5,1.11,2.77,2.05,4.02,2.97c0,3.32-0.04,6.48,0.01,9.63c0.04,2.45,0.09,2.26,2.84,2.18c1.72-0.05,3.52-0.61,5.3,0.44
		c0.63,0.37,1.89-0.46,2.87-0.48c2.83-0.08,5.66-0.03,8.47-0.03c1.31-1.31,2.61-2.61,4-4c4.24-0.09,8.96,0.94,11.61-3.9
		c24.16,0,48.13,0,72.43,0c0.75,0.91,1.69,2.05,2.38,2.89c1.89,0,3.22,0,4.56,0c1.64,1.53,2.94,3.72,5.75,3.01
		c1.46,1.32,2.92,2.64,4.44,4.02c1.56,0,3.22,0,4.86,0c0.73,0.73,1.44,1.44,2.31,2.31c0,1.94,0,4.06,0,6.37
		c-2.33,1.91-4.84,3.97-7.6,6.24c-2.27,0-4.92,0-7.97,0c-0.65-0.93-1.34-2.2-2.29-3.22c-1.5-1.6-2.51-3.56-5.3-3.9
		c-1.81-0.22-3.41-2.2-5.71-3.82c-2.55,0-6.01-0.63-9.12,0.13c-6.05,1.49-12.09,0.54-18.12,0.82c-1.38,0.07-2.87,0.52-4.2-0.79
		c-0.52-0.51-2.26-0.56-2.82-0.09c-1.64,1.38-3.43,0.88-5.15,0.89c-7.33,0.06-14.67,0.03-22.07,0.03c-0.88,0.93-1.8,1.89-2.77,2.9
		c-3.3,0-6.61,0-10.07,0c-0.91,1.11-1.86,2.25-2.68,3.26c-5.21,0-10,0-14.62,0c2.31,2.31,4.61,4.61,6.62,6.62c0,2.95,0,5.26,0,7.8
		c-1.09,0.98-2.32,2.09-3.75,3.39c-3.63,0-7.62,0-11.75,0c-1.05-1.12-2.18-2.33-3.43-3.66c0-0.78,0-1.77,0-2.76
		c-0.26-0.19-0.55-0.55-0.76-0.52c-2,0.33-3.55-0.32-4.7-1.98c-0.62-0.9-1.47-1.27-2.55-1.05c-2.68-0.18-5.1-0.05-7.09,2.38
		c-0.69,0.84-2.71,0.59-4.14,0.84c-2.24,2.24-4.58,4.58-6.73,6.73c-4.09,0-7.74,0-11.62,0c-0.98-1.08-2.08-2.31-3.38-3.75
		c-0.27-3.6-0.44-7.54,3.75-10.18c2.01,0,4.34,0,6.7,0c1.38-1.42,2.78-2.85,4.4-4.51c0-1.16,0-2.61,0-3.89
		c0.88-0.88,1.59-1.59,2.62-2.62c1.52,0.34,3.25-0.28,5.23,0.82c1.07,0.59,3.2-0.73,5.09-1.26c0-2.83,0-5.95,0-9.15
		c-4.29-2.33-4.27-2.34-2.96-7.81c0.23-0.94,0.12-1.97,0.12-2.95c0.01-4.33,0-8.67,0-12.84c-1.43-1.12-2.78-2.18-3.96-3.11
		c0-11.3,0-22.28,0-33.23c1.34-1.34,2.63-2.63,3.94-3.94c0-1.98,0-3.98,0-6.03c0.95-0.89,1.92-1.8,2.77-2.6
		c0.11-0.49,0.23-0.79,0.23-1.1c0.01-7.17,0.05-14.33-0.02-21.5c-0.02-1.72,0.09-3.16,1.57-4.38c1.97-1.64,2.67-3.86,2.5-6.46
		c-0.16-2.32-0.03-4.66-0.03-7c0-1.63,0-3.07,1.34-4.5c0.8-0.85,0.72-2.76,0.61-4.16c-0.23-2.85,0.34-5.48,2.1-7.64
		c1.91-2.34,2.15-4.9,1.98-7.71c-0.14-2.32-0.03-4.65-0.03-7.16c1.21-0.91,2.48-1.86,3.94-2.95c0-3.01,0-6.33,0-9.41
		c2.14-2.14,4.13-4.13,6.12-6.12c-0.41-4.36-0.16-8.36,3.83-11.04c0-3.67,0-7.3,0-10.83c1.56-1.44,3-2.78,4.12-3.81
		c0-7.64,0-14.64,0-21.63c1.38-1.55,3.28-2.63,3.09-5.28c-0.12-1.57,1.97-3.06,3.65-3.2c0.97-0.08,1.95-0.01,3.1-0.01
		c0-1.61,0-3.07,0-4.35c1.47-1.47,3.59-2.61,3.88-4.1c0.49-2.54,2.64-4.01,3.17-6.21c0.49-2.05,0.1-4.31,0.1-6.72
		c1.2-1.24,2.14-2.96,4.61-2.68c1.41,0.16,2.36-0.85,2.39-2.41c0.02-1,0-2,0-3.04c0.82-0.79,1.65-1.61,2.53-2.46
		c1.25,0,2.58,0,4.27,0c0.09-1.07,0.19-2.16,0.31-3.52c1.04-0.9,2.28-1.98,4.04-3.5c0.18,0,1.16,0.08,2.13-0.02
		c1.95-0.2,3.62-1.87,3.7-3.73c0.07-1.66-0.02-3.33,0.02-5c0.07-2.51,1.72-4.18,4.2-4.24c2.15-0.05,4.29-0.01,6.06-0.01
		c0.85-1.16,1.37-2.18,2.18-2.88c1.23-1.07,1.58-2.28,1.61-3.88c0.03-2.63,1.67-4.16,4.17-4.23c1.81-0.05,3.62-0.01,5.61-0.01
		c0-1.59,0-3.05,0-4.34c1-1,1.83-1.83,2.66-2.66c1.66,0,3.32,0,5.33,0c0.06-1.42,0.15-2.85,0.17-4.28c0.05-4.62,0.87-5.48,5.85-5.91
		c0-1.42,0-2.88,0-4.16c1.24-1.24,2.3-2.3,3.54-3.54c1.27,0,2.72,0,4.41,0c-0.3-3.04,2.07-4.29,3.66-6.09c1.99,0,3.98,0,5.96,0
		c1.19-2.75,2.83-4.76,6.58-3.86c0.03-2.51-0.5-5.16,2.47-6.15c2.66,0,5.32,0,8.2,0c2.2-2.65,4.48-5.38,6.68-8.04
		c2.19,0,4.19,0,6.53,0c-0.04-2.87,1.4-5.08,3.76-7.03c1.94,0.6,4.42-1.23,6,1.17c3.45-1.22,4.2-4.19,5.31-6.74
		c1.15-2.65,0.98-2.73,2.64-4.4c1.64,0,3.3,0,5.44,0c-0.74-1.29-1.64-2.33-1.95-3.52c-0.32-1.25-0.07-2.64-0.07-4.24
		c-2.26-2.19-4.65-4.5-7-6.77c0-5.24,0-10.41,0-15.95c0.96-0.96,2.12-2.12,3.27-3.27c3.45,0.66,4.23-2.63,6.2-4.16
		c0.32-0.25,0.9-0.18,1.53-0.28c0-3.9-0.03-7.71,0.01-11.51c0.03-2.81,0.32-5.51-2.56-7.53c-1.01-0.71-1.77-2.52-1.5-4.32
		c0.24-1.62,0.05-3.31,0.05-5.16c1.21-0.91,2.48-1.86,3.94-2.95c0-2.01,0-4.33,0-6.4c2.49-2.49,4.84-4.84,7.04-7.03
		c0-3.65,0-6.98,0-10.39c0.94-0.87,1.91-1.77,3.02-2.8c0.16-3.21-1-7.24,3.99-7.94c0-3.86,0-7.52,0-11.16
		c2.46-2.45,2.46-2.45,5.75-2.6c-0.14-3.11,2.52-4.49,4.28-6.54c0-2.31,0-4.64,0-6.96c0.84-0.84,1.66-1.66,2.49-2.49
		c1.33,0,2.67,0,4.13,0c2.16-2.53,4.38-5.12,6.58-7.72c0.3-0.36,0.63-0.74,0.77-1.18c1.33-3.9,1.32-3.9,4.02-6.6
		c0-1.12-0.02-2.43,0-3.73c0.06-3.08,1.14-4.36,4.2-4.74c1.04-0.13,1.5-0.18,1.96-1.46c0.47-1.29,2.25-2.11,3.84-3.46
		c0-0.74-0.06-2.05,0.01-3.36c0.11-1.88,1.85-3.67,3.7-3.73c2.16-0.08,4.33-0.02,6.74-0.02c0.83-1.01,1.77-2.15,2.46-2.99
		c2.56,0,4.56,0,6.66,0c1.07-2.81,1.14-6.47,5.23-7c3.02-0.39,5.52,0.26,6.46,3.99c1.54,0,3.17-0.04,4.8,0.02
		c0.62,0.02,1.36,0.07,1.81,0.41c3.12,2.4,6.73,2.66,10.65,2.55c1.68,2.27,3.87,3.83,6.89,2.94c1.2,1.2,2.26,2.26,3.49,3.49
		c0,1.6,0,3.39,0,5c3.24,3.24,6.24,6.37,9.4,9.34c1.47,1.38,2.39,3.7,5.15,3.34c0.51-0.07,1.24,1.01,1.76,1.65
		c1.3,1.61,2.76,3.16,3.71,4.96c0.95,1.8,3.24,1.92,4.04,4.35c0,5.05,0,10.71,0,16.53c2.12,1.29,3.42,3.4,3.77,5.77
		c0.34,2.31,0.56,4.63-0.48,7.11c-0.83,1.98-0.56,4.62-0.2,6.88c0.79,4.89,0.91,4.86-0.04,9.19c-0.18,0.79-0.3,1.79,0.02,2.47
		c1.08,2.29,1.16,4.27,0.12,6.77c-0.72,1.73,0.13,4.13,0.33,6.22c0.12,1.27,0.84,2.76,0.39,3.74c-1.08,2.36-0.86,4.73-0.89,7.13
		c-0.03,2.3-0.01,4.6-0.01,7.53c1.21-0.71,2.02-1.05,2.66-1.6c1.11-0.96,1.94-2.17,3.77-1.85c2.04,0.36,2.48-1.92,4.2-2.84
		c1.43,0,3.22,0,4.99,0c0.95,0.95,1.89,1.89,2.86,2.86c5.64,0,11.3,0,17.1,0c0.82-0.89,1.71-1.88,2.61-2.87c5.06,0,10.03,0,15.34,0
		c0.73,0.89,1.66,2.04,2.35,2.89c2.58,0,5-0.71,6.46,0.17c2.16,1.3,4.16,0.48,6.19,0.82c1.89,0.32,3.94-0.66,5.7,0.73
		c0.1,0.08,0.33,0.2,0.34,0.18c2.31-3.37,5.81-1.29,9.26-2.14c0.58-0.72,1.51-1.88,2.24-2.78c2.81,0,5.14,0,7.46,0
		c1.02-2.32,2.19-4.14,5.28-4.07c2.84,0.07,4.64,1.01,5.47,4.08c2.7,0,5.49,0.01,8.28,0c1.63,0,3.04,0.06,4.5,1.33
		c1.02,0.89,3.02,0.64,4.81,0.94c1.62,3.2,6.37,3.6,7.51,7.6c2.7,0.75,6.12-1.31,8,2.12c3.29,0,6.46,0,9.62,0
		c4.06,0.01,8.02,1.9,12.08,0.96c8.66-2,17.4-0.48,26.1-0.91c1.37-0.07,2.96-0.68,4.21,0.73c0.19,0.22,1.09-0.18,1.65-0.31
		c3.22-0.74,5.07-1.57,7.26,3.42c3.04,0,6.16,0,9.1,0c1.47,1.47,2.77,2.77,4.09,4.09c2.64,0,5.3,0,8.02,0
		c1.66,1.77,3.18,3.49,6.21,3.15c2.11-0.24,2.96,2.07,3.72,3.77c3.07,0.72,6.71-1.45,9.36,2.58c0-2.33,0-4.11,0-6.22
		c-0.7-0.65-1.68-1.54-2.74-2.51c0-5.14,0-10.26,0-14.99c-1.57-1.17-2.84-2.12-4.03-3.01c0-2.53,0-4.85,0-7.29
		c1.25-1.19,2.57-2.45,3.97-3.79c0-8.32-0.01-16.63,0-24.94c0.01-4.62,0.86-5.49,5.77-5.9c0.2-1.22,0.07-2.67,0.69-3.64
		c0.72-1.13,2.1-1.83,3.46-2.94c0-1.9,0-4.21,0-6.57c1.36-1.23,2.7-2.45,3.94-3.57c0-2.96,0-5.59,0-8.7
		c0.77-0.49,1.74-1.11,2.72-1.73c-0.13-0.19-0.26-0.37-0.39-0.56c1.79,0,3.57,0,5.02,0c1.14-1.55,2.08-2.83,3.08-4.18
		c2.21,0,4.33,0,6.84,0c-0.84-2.79,0.52-4.51,2.49-5.97c2.62,0,5.28,0,8.07,0c0.1-0.46,0.22-0.9,0.29-1.36
		c0.21-1.39-0.52-2.91,0.96-4.12c1.64-1.34,3.24-2.56,5.48-2.49c1,0.03,2,0.01,3.35,0.01c0.07-0.89,0.03-1.84,0.23-2.73
		c0.46-2.06,2.18-3.26,4.68-3.26c14.5-0.02,29-0.01,43.74-0.01c0.82,1.01,1.76,2.15,2.44,2.98c1.91,0,3.24,0,4.28,0
		c5,4.6,9.83,9.05,14.79,13.62c0,1.12,0,2.44,0,3.71c2.94,3.1,2.94,3.1,3.13,6.27c0.69,0.35,1.43,0.63,2.04,1.08
		c0.66,0.49,1.19,1.16,1.87,1.83c0,2.07-0.01,4.22,0,6.37c0.01,1.46-0.33,3.01,1.3,3.98c0.34,0.21,0.74,0.87,0.65,1.18
		c-0.73,2.35,1.04,2.96,2.47,3.94c1.09,0.75,1.92,1.73,1.61,3.33c-0.21,1.1-0.04,2.27-0.04,3.58c1.66,0,3.11,0,4.39,0
		c1.24,1.24,2.3,2.3,3.63,3.63c-0.42,1.42,0.7,3.21-0.78,4.83c-0.35,0.38-0.47,1.52-0.18,1.84c1.28,1.41,0.92,3.04,0.94,4.63
		c0.02,1.5,0.01,3,0.01,4.71c-1.25,1.11-2.61,2.32-3.93,3.5c0,3.02,0,5.81,0,8.41c-1.12,1.12-2.06,2.06-3.09,3.09
		c0.98,0.87,1.95,1.74,2.91,2.59c0,9.6,0,19.05,0,28.5c-0.59,0.59-1.18,1.18-1.77,1.77c3.5,4.68,1.14,10.09,2,15
		c-1.42,1.42-2.72,2.72-4.12,4.12c0,4.22-0.09,8.54,0.05,12.85c0.05,1.7,0.75,3.38,0.92,5.09c0.17,1.65,0.04,3.33,0.04,5
		c0,0.67,0.18,1.4-0.04,1.99c-0.53,1.42-1.25,2.77-1.89,4.15c1.56,1.09,0.75,2.72,0.89,4.12c0.04,0.41-0.25,0.89-0.47,1.29
		c-1.76,3.14-1.76,3.13,0.53,5.54c0.34,0.35,0.67,0.71,0.97,1.04c0,3.55,0,7.05,0,11.11c0.63,0.4,1.61,1.02,2.59,1.65
		c-0.13,0.19-0.26,0.37-0.4,0.56c1.79,0,3.58,0,5.46,0c1,1.34,1.95,2.62,3.07,4.12c2.83-0.42,5.54,0.08,6.51,3.71
		c0.04,0.14,0.23,0.23,0.34,0.36c3,3.23,6,6.45,9.19,9.88c2.63,0,5.62,0,8.79,0c2.04,3.43,6.68,3.64,8.98,6.98
		c0.22,0.31,1.59,0.34,1.88,0.01c1.52-1.73,3.43-0.6,5.04-0.99c2.2,2.2,4.32,4.32,6.49,6.49c0,1.27,0,2.59,0,4.03
		c1.31,1.2,2.65,2.43,3.94,3.61c0,1.5,0,2.81,0,3.72c3.41,3.41,6.57,6.57,10.11,10.11c0.98,0,2.62,0,4.84,0
		c0.74,0.86,1.7,1.98,2.68,3.1c0.22,0.25,0.51,0.71,0.7,0.67c3.35-0.54,4.89,2.69,7.54,3.57c0.73,0.24,1.46,0.5,2.19,0.74
		c0.74,0.24,1.72,0.23,2.18,0.72c1.98,2.13,3.84,4.38,5.67,6.64c0.26,0.31,0.23,0.94,0.18,1.41c-0.16,1.26,0.19,2.33,1.28,2.97
		c1.93,1.14,1.83,2.95,1.72,4.74c1.69,1.69,3.24,3.47,5.02,4.95c1.69,1.41,2.34,3.05,1.91,5.29c7,1.69,8.89,8.42,13.18,13.09
		c-0.54,4.02-0.06,7.94,3.89,10.52c0,2.77,0,5.43,0,8.37c0.96,0.89,2.09,1.87,3.13,2.94c0.41,0.43,0.9,1.1,0.86,1.61
		c-0.23,2.54,1.12,3.8,3.24,4.8c2.06,0.97,3.01,2.63,2.87,5.14c-0.23,4.32-0.03,8.66-0.08,13c-0.04,3.41,2,6.72,0.94,10.06
		c-1.79,5.68-0.38,11.42-1.03,17.04c1.99,1.4,4.55,2.15,4.16,5.33c-0.08,0.62,0.59,1.43,1.09,2c0.87,1.01,1.86,1.9,2.83,2.87
		c0,3.64,0,7.3,0,10.99c2.85,1.1,4.82,2.92,3.94,6.21c-0.36,1.35-0.09,2.44-0.02,3.7c0.1,1.69,0.83,3.63-0.84,5.13
		c-0.25,0.23-0.23,1.04-0.04,1.44c1.89,3.92,0.74,8.07,0.93,12.1c0.19,3.99-0.17,8.01,0.15,11.99c0.12,1.51-2.23,2.45-0.44,4.39
		c0.85,0.92,0.23,3.16,0.35,4.79c0.1,1.34-0.09,2.53-1,3.6c-0.83,0.97-1.67,1.95-2.31,3.04c-0.61,1.05-0.78,2.41-1.49,3.36
		c-1.06,1.42-2.73,2.37-2.29,4.62c0.11,0.55-0.76,1.31-1.2,1.95c-0.9,1.3-2.15,2.47-2.65,3.9c-1.39,3.96-1.27,4.01-3.03,5.79
		c0,2.63,0,5.28,0,8.03c-1.31,1.21-2.65,2.45-3.77,3.49c-0.96,3.98,0.84,7.86-1.09,11.44c-0.15,0.27,0.56,0.98,0.82,1.51
		c1.85,3.69,1.47,7.08-1.49,10.04c-0.96,0.96-1.27,2.04-1.67,3.33c-0.57,1.88-2.22,3.43-3.73,5.59c0,5.03,0,10.67,0,16.59
		c-1.11,0.79-2.33,1.65-3.09,2.2c0,3.12,0,5.45,0,7.97c-1.14,0.93-2.37,1.92-4.02,3.26c0,1.53,0.08,3.67-0.04,5.81
		c-0.05,0.9-0.27,2.05-0.86,2.59c-1.58,1.44-2.17,3-2.18,5.17c-0.01,2.13-1.79,3.21-3.91,3.9c0,3.57,0,7.21,0,10.85
		c0,4.26,0,4.26-3,7.28c0,1.98,0.1,3.99-0.03,5.97c-0.11,1.71,0.78,3.64-0.93,5.07c1.91,1.6,0.39,3.78,1.2,5.7
		c-1.28,0.94-2.48,1.81-3.21,2.35c0,2.17,0,3.49,0,4.9c-1.3,1.23-2.63,2.48-3.94,3.7c1.6,2.68,1.24,5.6,0.71,8.1
		c-0.42,1.97-2.2,4.23-4.01,5.19c-3.37,1.8-4.6,5.11-6.8,7.71c-0.83,0.98-1.68,1.95-2.47,2.87c-2.83,0-5.48,0-8.33,0
		c0,1.49,0,2.94,0,4.25c-1.95,1.91-3.74,3.66-5.71,5.58c-3.39,0-7.02,0-10.31,0c-1.6,1.64-2.98,3.05-4.02,4.12
		C786.33,704,783.16,704,780,704z"/>
	<path fill="#020204" d="M50,627c1.18,1.87,2.36,3.73,3.94,6.23c0,1.14,0,3.12,0,5.46c0.99,0.8,2.15,1.73,3.09,2.48
		c0,1.75,0,3.07,0,4.36c1.33,1.33,2.63,2.63,3.94,3.94c0,5.3,0,10.63,0,16.04c2.51,2.14,4.46,4.61,4.05,8.26
		c-0.04,0.4,0.23,0.94,0.53,1.25c1.9,1.96,3.99,3.6,6.84,4c0.73,0.1,1.55,0.47,2.07,0.98c6.4,6.33,12.76,12.69,19.09,19.08
		c0.4,0.41,0.49,1.12,0.77,1.79c1.59,0,3.23,0,5.25,0c1.51,1.85,3.11,3.82,4.87,5.97c1.41,0,3.04,0,5.01,0
		c1.09,1.32,2.01,3.12,3.48,4.03c1.76,1.08,2.44,2.85,3.73,4.12c2.18,2.15,3.75,5.03,6.92,6.11c1.85,0.63,1.85,3.06,3.76,3.98
		c1.47,0.7,2.64,2.02,2.81,4.25c0.14,1.88,3.56,3.53,5.1,2.53c2.08-1.35,4.13-0.53,6.23-0.98c2.06,2.52,4.11,5.02,6.51,7.95
		c0,0.75-0.06,2.06,0.01,3.36c0.09,1.67,1.59,3.79,3.16,3.68c2.64-0.19,3.75,1.66,5.3,3.08c3.97,0,7.96,0,12.03,0
		c0.88,0.94,1.79,1.91,2.8,2.98c3.08,0,6.21,0,9.15,0c1.35,1.35,2.53,2.53,3.89,3.89c2.93,0,6.06,0,9,0
		c1.12,1.12,2.06,2.06,3.16,3.16c4.36-0.03,9.19-0.83,11.74,4.04c3.04,0,5.69,0,8.3,0c1.34,1.34,2.64,2.64,3.69,3.69
		c2.55-0.35,4.9-0.67,7.29-1c1.1,1.46,2.06,2.73,3.17,4.2c3.32,0,6.96,0,10.75,0c1.52,1.53,2.91,3.31,5.45,3.51
		c1.91,0.15,2.73,2.67,4.92,2.58c2-0.09,4.02-0.19,5.99,0.02c2.53,0.27,5.02,0.85,8.44,1.47c0.32,0.4,1.25,1.56,2.04,2.54
		c5.01,0,9.66,0,14.26,0c1.35,1.35,2.65,2.65,3.95,3.95c2.99,0,5.99,0,8.99,0c3,0,6,0,9,0s6.01-0.13,9,0.04
		c2.9,0.17,5.91-0.81,8.71,0.66c2.71-1.3,5.62-0.38,8.13-0.75c1.07-1.44,2.02-2.71,2.91-3.91c7.19,0,14.18,0,21.25,0
		c1.22-1.3,2.47-2.63,3.7-3.94c2.43,0,4.74,0,7.2,0c0.92-1.1,1.88-2.23,2.6-3.09c3.18,0,5.84,0,8.51,0
		c2.13-3.92,4.41-5.31,8.69-3.83c2.14,0.74,4.11,0.54,6.14,0.84c0.93,0.14,1.84,0.37,2.75,0.59c0.45,0.11,1.22,0.47,1.28,0.37
		c1.85-3,6.68-1.09,7.85-4.97c3.66,0,7.14-0.08,10.62,0.03c1.51,0.05,3.06-0.48,3.04-1.76c-0.04-2.72,2.34-3.41,3.41-5.2
		c3.69,0,7.33,0,10.66,0c2.53-2.53,4.88-4.88,7.29-7.29c2.86,0.42,5.52,0.97,8.2,1.17c2.65,0.2,5.34-0.07,7.99,0.08
		c1.91,0.11,3.94-0.72,5.74,0.62c0.14,0.11,0.54,0.08,0.68-0.04c2.65-2.2,5.81-1.55,8.84-1.61c1.17-0.02,2.33,0,3.74,0
		c0.82-1.01,1.76-2.15,2.46-3c2.23,0,4.42-0.66,5.43,0.15c1.81,1.44,2.75-0.85,4.33-0.26c1.45,0.54,3.26,0.12,4.63,0.12
		c1.09-1.47,2.03-2.75,2.92-3.96c3.85,0,7.5,0,11.45,0c1.83-2.25,3.77-4.63,5.7-7c2.7,0,5.36,0,7.65,0
		c2.81-1.03,3.29-3.62,3.73-5.54c0.46-1.99,1.46-3.15,2.71-4.46c2.62,0,5.28,0,8.35,0c0.76-0.94,1.69-2.1,2.38-2.96
		c3.34-0.29,6.18,0.08,9.1-0.9c1.72-0.58,3.97-0.33,6.15,0.51c2.31,0.88,5.22,0.2,8.18,0.2c1-1.12,2.21-2.48,3.33-3.74
		c2.69-0.23,5.07-0.49,7.28,0.86c1.97-1.81,4.37-0.84,6.59-0.97c2.49-0.14,5-0.03,7.89-0.03c0.75-0.94,1.68-2.1,2.39-2.98
		c24.13,0,47.78,0,71.41,0c0.97,0.97,1.91,1.91,2.98,2.98c1.03,0,2.19,0.12,3.32-0.02c3.29-0.4,5.62,0.73,6.63,4.01
		c4.53-2.01,5.91-1.28,8,2.98c26.31,0,52.62,0,78.98,0c1.05-0.97,2.04-2.65,3.24-2.82c2.1-0.3,1.02-2.63,2.67-3.13
		c0.82-0.25,1.42-1.2,2.57-1.05c1.45,0.19,2.89,0.04,4.08-0.97c5.51,0.41,11.03,0.81,16.64,1.23c0.72,0.68,1.56,1.48,2.35,2.23
		c0,1.75,0,3.41,0,5.06c-2.14,2.14-4.26,4.26-6.43,6.43c-2.26,0-4.58,0-6.91,0c-1.75,1.35-2.89,3.84-5.74,3.05
		c-1.48,1.29-2.96,2.58-4.57,3.98c-31.1,0-62.42,0-94.21,0c-0.71-0.88-1.64-2.04-2.39-2.98c-2.22,0-4.06,0-6.29,0
		c-1.01-1.2-2.01-3.54-3.39-3.78c-2.16-0.39-2.84-2.09-4.34-2.88c-6.72-1.8-13.61-1.38-20.46-1.29c-2.2,0.03-4.38,0.76-6.59,0.91
		c-2.32,0.17-4.83,0.58-6.96-0.08c-3.71-1.15-7.49-1.24-11.09-0.7c-2.54,0.38-5.04,0.8-7.61,0.82c-2.5,0.01-5,0-7.5,0
		c-1.93,2.19-4.27,3.16-7.26,3.04c-4.16-0.17-8.33-0.04-12.73-0.04c-0.84,1.01-1.79,2.14-2.51,3c-6.84,0-13.17-0.08-19.5,0.05
		c-2.2,0.05-4.47,0.36-6.55,1.05c-1.29,0.43-2.29,1.77-3.6,2.85c-1.72,0-3.7,0-5.32,0c-1.34,1.5-2.26,3.32-3.69,3.89
		c-1.24,0.5-3.26,0.92-4.85-0.85c-1.04,1.29-2.52,2-2.62,4.15c-0.05,1.02-1.52,1.98-2.3,2.9c-1.83,0-3.49,0-5.2,0
		c-1.05,3.34-3.32,4.63-6.79,3.85c-1.25,1.37-2.48,2.71-3.66,4c-2.17,0-4.15,0-6.28,0c-0.91,1.11-1.85,2.26-2.61,3.19
		c-5.18-0.48-9.98,0.94-14.44-1.51c-1.17,3.4-3.04,4.59-6.38,4.51c-9.66-0.24-19.33-0.04-28.99-0.11c-2.39-0.02-4.7,0.41-5.95,2.4
		c-1.18,1.87-3.4,1.05-4.55,2.43c-1.19,1.43-2.83,1.85-4.42,2.6c-2,0.94-3.88,0.21-5.93,0.74c-1.48,1.36-2.74,3.25-5.59,3.03
		c-1.03-0.08-2.2,1.77-3.39,2.82c-2.52,0-5.18,0-7.87,0c-1.27,1.3-2.55,2.6-3.86,3.94c-5.65,0-11.3,0-17,0
		c-1.23,1.35-2.46,2.69-3.65,3.99c-2.69,0-5.14,0-7.42,0c-1.12,1.12-2.06,2.06-3.04,3.04c-2.29,0-4.61,0-7.35,0
		c-0.76,0.95-1.69,2.1-2.44,3.04c-4.73,0-9.07-0.13-13.4,0.04c-4.03,0.16-8.06,0.63-12.08,0.97c-0.31,0.03-0.79,0-0.91,0.18
		c-1.87,2.87-4.82,1.32-7.25,1.86c-6.49,1.45-13.05,0.88-19.59,0.92c-1.71,0.01-3.35-0.01-5.18-0.72c-1.79-0.69-4.45-0.96-6.63,0.45
		c-0.72,0.47-1.89,0.29-2.86,0.3c-5.66,0.02-11.33,0.01-17.27,0.01c-0.76-1.04-1.63-2.23-2.16-2.96c-4.51,0-8.16,0-12,0
		c-0.95-1.13-1.96-2.33-3.35-3.96c-5.11,0-10.89,0-16.5,0c-1.47-1.47-2.77-2.77-4.07-4.07c-2.33,0-4.66,0-7.49,0
		c-0.73-0.87-1.68-2-2.55-3.05c-2.38,0.47-4.56,0.9-6.74,1.33c-1.37-1.53-2.58-2.89-3.92-4.39c-4.2,0.65-7.81-0.29-10.19-3.9
		c-3.46,0-6.79,0-10.12,0c-1.3-1.3-2.59-2.59-3.74-3.74c-2.47,0.35-4.81,0.67-7.17,1c-1.14-1.38-2.15-2.59-3.44-4.16
		c-2.06,0-4.7,0-7.5,0c-0.9-1.12-1.83-2.26-2.5-3.09c-3.94,0-7.26,0-10.77,0c-0.94-1.14-1.94-2.36-3.24-3.94
		c-1.1,0.35-2.71,0.06-4.53,0.56c-3.7,1.01-7.65,0.73-10.8-2.28c-0.65-0.62-1.6-0.93-2.42-1.36c-0.55-0.28-1.1-0.55-1.67-0.78
		c-1.51-0.61-1.23-2.8-3.06-3.28c-1.31-0.35-2.57-1.13-3.67-1.97c-2.55-1.93-5.78-3.47-4.87-7.78c-2.66,0-5.12,0-7.78,0
		c-0.79-1.23-1.38-2.61-2.37-3.57c-1.46-1.41-2.32-3.49-4.91-3.77c-1.1-0.12-2.36-1.64-2.98-2.82c-1.48-2.86-2.01-3.7-3.83-5.33
		c-2.26-2.03-4.09-4.47-7.28-5.41c-1.07-0.32-1.49-2.74-2.59-3.15c-1.56-0.57-2.49-1.65-3.27-2.76c-0.43-0.62-0.33-1.57-1.43-1.37
		c-1.66,0.29-2.84-0.42-3.82-1.66c-0.75-0.95-1.76-1.14-2.9-1.48c-1.58-0.47-3.06-1.64-4.31-2.8c-2.81-2.6-5.41-5.43-8.18-8.08
		c-1.26-1.21-2.21-2.73-4.13-3.3c-0.94-0.28-1.78-1.49-2.28-2.47c-0.99-1.95-2.37-3.27-4.31-4.29c-1.37-0.72-2.71-1.8-2.92-3.8
		c-1.44,0-2.9,0-4.39,0c-0.86-1.11-1.57-2.21-2.46-3.13c-0.82-0.86-1.78-1.61-2.76-2.27c-1.34-0.89-1.28-2.19-1.21-3.51
		c0.12-2.34-1.28-3.49-3.23-4.24c-3.4-1.3-3.84-1.78-3.75-5.19c0.13-5.04,1.7-9.98,0.66-15.99c-0.46-0.4-1.62-1.33-2.69-2.35
		c-0.44-0.42-1.03-1.11-0.94-1.56c0.51-2.66-1.58-3.77-3.01-5.36c0-6.26,0-12.58,0-18.96c1.2-1.49,2.44-2.6,4.77-2.72
		C47.12,624.75,48.35,626.14,50,627z"/>
	<path fill="#030303" d="M225.79,499.25c0.44-3.2,0.89-6.52,1.29-9.46c-1.6-1.2-2.87-2.15-4.08-3.06c0-3.51-0.11-6.84,0.03-10.16
		c0.13-2.81-0.01-5.42-2.01-7.69c-1.82-2.07-0.75-4.69-1.11-7.3c1.1-0.81,2.3-1.7,3.06-2.26c0-2.44,0-4.1,0-5.95
		c1.14-0.93,2.37-1.93,3.91-3.19c0-1.77,0-4.07,0-6.54c1.11-0.91,2.26-1.85,3.11-2.54c0-2.89-0.12-5.23,0.04-7.55
		c0.11-1.54,0.43-3.14,1.01-4.57c0.6-1.47,1.57-2.66,3.42-3.09c0.96-0.22,1.67-1.54,2.5-2.37c0.01-0.16,0.02-0.33,0.02-0.49
		c0-1.5,0-3,0-4.67c0.92-0.75,1.94-1.54,2.92-2.38c0.41-0.35,1.08-0.87,1.02-1.2c-0.5-2.68,1.69-3.72,3.05-5.28
		c0-2.32,0-4.65,0-7.04c2.22-2.21,4.46-4.44,6.71-6.67c0.11-0.11,0.2-0.25,0.33-0.41c0-1.63,0-3.29,0-4.92
		c0.73-0.73,1.44-1.44,2.31-2.31c1.94,0,4.07,0,6.32,0c0.69,0.69,2.09,1.44,2.21,2.36c0.2,1.48,0.86,1.61,1.92,1.47
		c1.28-0.17,2.08,0.45,3.01,1.24c1.14,0.97,1.27,2.67,3.04,3.29c1.28,0.44,2.05,2.16,3.25,3.03c3.13,2.29,3.96,7.92,1.75,12.74
		c1.73,1.97,4.14,3.74,4.28,6.99c0.04,0.95,1.53,1.83,2.72,3.13c0-9.36,0-18.15,0-27.07c-2.1-2.1-4.34-4.34-6.71-6.71
		c0-1.83,0-3.79,0-6.06c-1.61-1.11-2.7-2.75-4.69-3.83c-3.59-1.96-3.77-3.49-2.6-8.12c0.2-0.78,0.09-1.63,0.16-2.44
		c0.22-2.58,1.74-4.07,4.27-4.18c1-0.04,2-0.01,3.12-0.01c1.16,1.28,2.37,2.63,2.96,3.28c2.57,1.35,4.59,0.12,6.39,1.75
		c1.43,1.3,0.77,3.07,1.98,4.27c1.21,1.2,3.33,0.19,4.2,2.06c0.37,0.78,2.12,4.88,2.02,6.64c-0.1,1.82,0.29,3.27,1.83,4.26
		c1.35,0.87,1.23,2.17,1.23,3.5c-0.02,5.31-0.01,10.62-0.01,15.82c4.25,2.25,5.14,3.98,3.52,8.23c-0.52,1.35-0.8,2.76-0.42,3.74
		c1.6,4.16,0.68,8.42,0.87,12.62c0.15,3.33,0.03,6.66,0.03,11.01c0.35,0.24,1.5,0.73,2.2,1.59c1.08,1.33,1.96,2.81,1.83,4.74
		c-0.15,2.32-0.03,4.66-0.04,7c0,0.66,0.27,1.61-0.06,1.95c-1.89,1.92-1.68,3.99-0.98,6.32c0.64,2.13-0.51,4.37,0.78,6.7
		c0.84,1.52,0.16,3.88,0.16,6.13c-1.16,1.06-2.5,2.29-3.94,3.6c0.31,3.71,0.07,7.24-3.55,9.7c-1.7,0-3.68,0-5.96,0
		c-1.16,1.4-2.43,2.91-3.44,4.12c-3.26,0-5.92,0-8.54,0c-0.97,0.97-1.92,1.92-2.91,2.91c-3.59,0-7.25,0-10.82,0
		c-2.2,1.43-3.19,3.25-2.78,5.87c0.23,1.46,0.04,2.99,0.04,4.85c-1.36,1.31-2.94,2.78-4.45,4.3c-1.16,1.18-2.22,2.1-4.16,2.14
		c-2.54,0.05-4.2,2.1-5.85,3.88c-3.67,0-7.33,0-11.08,0c-1.1-1.15-2.26-2.34-3.55-3.69c1.18-2.92-1.63-4.79-2.27-7.3
		C229.89,503.06,227.76,501.44,225.79,499.25z"/>
	<path fill="#030303" d="M591.21,489.29c-1.21,1.21-2.15,2.15-3.15,3.15c0,2.92,0,5.9,0,8.47c-1.65,2.21-3,4.2-4.55,6.03
		c-1.59,1.88-3.53,3.26-6.21,3.06c-3.2-0.24-6.36,0.05-9.63-0.79c-2.42-0.62-5.36-0.82-8.13,0.55c-1.53,0.76-4.05,1.06-5.3-1.08
		c-1.31-2.24-3.71-3.27-5.26-5.25c0-1.63,0-3.29,0-4.88c-0.96-0.63-2.23-1.03-2.71-1.88c-1.47-2.57-3.45-4.48-6-5.93
		c-1.08-0.61-1.25-1.7-1.33-2.95c-0.14-2.2-0.61-4.39-0.95-6.58c-0.05-0.31-0.04-0.68-0.21-0.9c-1.17-1.48-2.77-2.43-3.02-4.81
		c-0.15-1.42-2.38-2.61-3.72-3.95c0-5.93,0-11.91,0-18.25c-0.98-0.79-2.13-1.72-3.01-2.43c0-2.78,0-5.11,0-7.4
		c0.97-0.97,1.92-1.92,2.91-2.91c0-11.58,0-23.22,0-35.05c1.32-1.11,2.71-2.28,3.97-3.33c0-1.87,0-3.32,0-4.59
		c1.12-1.12,2.06-2.06,3.04-3.04c0-3.28,0-6.6,0-10.04c1.18-1.07,2.4-2.19,3.97-3.62c0.63,0,1.76,0,2.86,0
		c0.18-8.63,2.71-10.72,8.8-9.83c0.72,0.96,1.62,2.15,2.22,2.95c0.86,0,1.02,0,1.19,0c3.5,0,6.99,0,10.56,0
		c2.14,2.52,4.62,4.18,8.26,4.15c1.28-0.01,2.57,1.75,4.07,2.87c1,0,2.33,0,3.64,0c1.08,1.08,2.14,2.14,3.37,3.37
		c0,1.27,0,2.72,0,3.98c1.57,1.72,3.64,2.84,3.17,5.48c-0.06,0.31,0.67,0.79,1.08,1.14c0.97,0.84,1.97,1.66,2.86,2.4
		c0,13.18,0.1,26.17-0.07,39.15c-0.04,3.01,1.02,6.13-0.8,9.15c-0.51,0.85,0.81,2.64,0.83,4c0.09,8.64,0.04,17.28,0.04,25.81
		c-1.41,1.41-2.71,2.7-4.13,4.12C590.32,482.85,590.78,486.18,591.21,489.29z"/>
	<path fill="#050505" d="M802.53,467.97c-10.3,0-20.62,0-31.37,0c-0.8,0.89-1.79,1.98-2.73,3.03c-2.43,0-4.76,0.09-7.09-0.02
		c-2.68-0.14-5.09,0.24-7.11,2.23c-0.5,0.49-1.41,0.73-2.15,0.77c-7.69,0.38-15.38,0.77-23.08,0.97c-1.68,0.05-3.38-0.75-5.09-0.91
		c-1.82-0.17-3.87-0.56-5.45,0.07c-3.53,1.41-7.1,0.55-10.99,1.02c-1.57,0.83-2.46,3.68-5.41,2.95c-0.5-0.12-1.3,0.79-1.91,1.28
		c-0.64,0.51-1.37,1.66-1.8,1.54c-3.62-0.95-3.68,3-5.96,4.07c-3.83,0-7.82,0-11.67,0c-0.99,1.35-1.92,2.63-2.87,3.91
		c-2.42,0-4.72,0-6.95,0c-2,1.1-2.88,3.72-5.85,3.28c-1-0.15-2.28,1.6-3.83,2.79c-1.27,0-3.06,0-4.44,0
		c-1.18,1.57-2.14,2.84-3.03,4.02c-1.53,0-2.86,0-4.33,0c-3.35,4.14-7.83,7.28-10.96,11.84c-1.67,2.43-4.12,4.5-6.74,6.32
		c-2.71,1.88-5.48,4.15-6.89,7.48c-0.3,0.71-1.14,1.2-1.73,1.78c0.05,0.12,0.08,0.31,0.17,0.34c2.73,1.11,1.1,4.15,2.61,5.98
		c0.74,0.89,0.13,2.89,0.13,4.2c-1.28,1.21-2.47,2.33-4.2,3.96c-5.03,0-11,0-16.97,0c-1.04-1.14-2.14-2.35-3.84-4.21
		c0-3.1-0.02-7.24,0-11.38c0.02-4.06,1.11-5.16,5.16-5.3c0.48-0.02,0.97-0.05,1.64-0.08c0-1.15,0-2.26,0-3.25
		c1.35-1.32,2.54-2.48,3.77-3.68c0.92,0,1.92,0,2.58,0c2.95-1.47,3.84-4.15,4.79-6.65c1.6-4.2,1.47-4.24,5.65-4.35
		c0.32-0.01,0.65-0.04,0.97-0.07c1.41-1.42,2.84-2.82,4.24-4.25c1.12-1.15,1.94-2.24,2.4-4.03c0.55-2.15,2.65-3.91,3.95-5.66
		c2.38,0,4.38,0,6.36,0c0.95-0.95,1.9-1.9,2.84-2.84c4.16-0.18,4.16-0.18,7.21-3.16c1.31,0,2.64,0,3.95,0
		c0.13-0.13,0.35-0.25,0.35-0.37c0.02-1.65,0.02-3.3,0.02-5.1c0.87-0.72,1.76-1.46,2.96-2.44c4.16,0,8.81,0,13.74,0
		c0.82-1.04,1.74-2.2,2.44-3.09c1.85,0,3.17,0,4.49,0c0.96-0.96,1.9-1.9,2.91-2.91c3.58,0,7.22,0,10.44,0
		c2.65-2.86,5.06-5.47,7.47-8.07c11.08,0,22.07,0.06,33.05-0.06c1.9-0.02,3.04,0.79,3.73,1.63c2.88-0.69,5.45-1.31,8.02-1.92
		c0.2,0.29,0.4,0.58,0.6,0.87c0.44-0.7,0.84-1.43,1.34-2.08c0.4-0.52,0.93-0.95,1.4-1.42c1.92-0.04,3.88-0.28,5.58,0.99
		c1.61-1.58,3.69-0.73,5.54-1.1c0.94-0.94,1.88-1.89,2.86-2.86c8.29,0,16.61,0,25.06,0c0.82-0.96,1.68-1.96,2.48-2.91
		c1.87,0,3.5,0,5.61,0c0.83,0.83,1.96,1.96,3.17,3.17c2.1-1.98,4.48-1.1,6.64-1.3c1.21,1.19,2.4,2.36,3.55,3.49
		c0,1.39,0,2.72,0,4.03C807.5,463,805.03,465.47,802.53,467.97z"/>
	<path fill="#030303" d="M469.54,679.96c-14.94,0-29.92,0-45.11,0c-1.1-1.21-2.33-2.56-3.5-3.85c-4.52,0-8.82,0-13.25,0
		c-1.21,1.32-2.54,2.78-3.56,3.89c-8.31,0-15.98-0.3-23.63,0.08c-8.74,0.43-17.32-2.08-25.82-0.9c-1.17-1.17-2.12-2.12-3.12-3.12
		c-11.59,0-23.23,0-35.21,0c-0.8-1.01-1.73-2.17-2.46-3.08c-4.12,0-7.78,0-11.59,0c-0.74-0.96-1.44-2.06-2.32-2.98
		c-0.82-0.86-1.81-1.55-2.77-2.27c-1.02-0.77-1.26-1.76-1.23-3c0.07-3.83,0.01-7.66,0.03-11.49c0.02-4.02,1.18-5.15,5.23-5.22
		c0.67-0.01,1.33,0,2.32,0c2.64,3.13,6.62,5.41,7.79,9.97c1.75,0,3.41,0,5.15,0c1.21,1.31,2.45,2.65,3.71,4.03
		c11.08,0,22.05,0.14,33.02-0.09c3.34-0.07,5.2,1.14,6.31,4.35c11.32-1.67,22.68-1.98,34.14-0.02c0.15-0.77,0.09-1.36,0.35-1.65
		c0.79-0.84,1.71-1.56,2.88-2.6c3.49,0,7.48,0,11.47,0c3,0,6.01,0.17,8.99-0.05c2.69-0.2,5.35-0.83,8.03-1.27
		c1.17,1.45,2.16,2.67,3.41,4.22c9.93,0,20.38,0,30.79,0c1.21-1.21,2.39-2.39,3.99-3.99c2.43,0.33,5.22,0.86,8.02,1.05
		c2.82,0.19,5.66,0.04,8.93,0.04c0.63,0.99,1.43,2.26,1.86,2.95c3.31,0,5.63,0,8.15,0c1.58-1.57,3.07-3.79,6.02-3.03
		c2.26-1.97,4.48-0.79,6.67,0.08c1.04-1.37,2.09-2.74,3.03-3.99c1.92,0,3.58,0,5.24,0c1.51,1.83,4.22,2.95,3.48,6.07
		c1.28,1.48,2.56,2.97,3.97,4.6c0,1.42,0,3.08,0,4.9c-0.76,0.69-1.62,1.46-2.61,2.36c-0.1,0.01-0.42,0.06-0.74,0.06
		c-3.66,0.01-7.33,0-11.1,0c-1.18,1.29-2.41,2.63-3.57,3.9c-7.03,0-13.81,0-20.56,0c-1.22-1.22-2.39-2.39-3.73-3.73
		c-0.95,0-2.06,0-3.33,0C472.18,677.32,470.88,678.62,469.54,679.96z"/>
	<path fill="#060606" d="M636,582.38c0-2.17,0-4.33,0-6.3c1.28-1.21,2.47-2.33,4.26-4.01c1.12,0,3.24,0,5.44,0
		c0.6-3.92,4.98-3.98,6.56-7.08c2.42,0.08,5.01,0.43,6.51-2.21c0.21-0.36,0.76-0.74,1.16-0.74c5.19,0.02,6.47-5.16,9.94-7.4
		c-0.61-3.15,1.67-4.73,3.61-6.58c3.24,0,6.55,0,9.89,0c2.35-1.86,3.83-5.4,7.76-3.91c1.41-1.56,2.73-3.02,3.76-4.15
		c1.63,0,2.63,0,3.51,0c1.91-1.37,3.34-3.1,5.24-4.42c1.66-1.16,3.08-1.58,4.9-1.57c3.33,0.02,6.66,0.01,10.02,0.01
		c0.98-2.66,2.5-4.47,5.73-4.06c0.66,0.08,1.55-0.39,2.09-0.88c1.1-0.99,2.04-2.17,2.9-3.1c3.67,0,6.99,0,10.27,0
		c1.69-1.69,3.51-3.2,4.94-5.02c1.71-2.17,3.96-2.53,6.11-1.67c1.24,0.5,1.92,1.01,2.82-0.18c2.94,0.73,4.45-1.44,6.08-3.09
		c1.64,0,3.14,0,4.54,0c1.02,1.13,2.01,2.21,2.68,2.96c3.35,0,6,0,8.38,0c3.68,1.58,2.82,4.65,2.91,7.34
		c-2.16,2.64-4.3,5.25-6.31,7.7c-5.82,0-11.31,0-16.72,0c-1.02,1.13-2.01,2.21-2.68,2.96c-2.35,0-4,0-5.63,0
		c-1.33,2.27-2.48,4.65-5.79,4.08c-0.56-0.1-1.43,0.06-1.77,0.44c-2.47,2.8-5.72,2.61-8.97,2.53c-1.17-0.03-2.33,0-3.92,0
		c-0.77,0.89-1.74,2.02-2.62,3.04c-2.53,0-4.85,0-7.13,0c-1.34,1.34-2.64,2.64-3.94,3.94c-2.65,0-5.31,0-7.99,0
		c-1.64,1.52-2.91,3.63-5.76,3.1c-0.5-0.09-1.19,0.99-1.84,1.47c-1.02,0.74-1.99,1.74-3.13,2.05c-1.76,0.48-3.28,1.07-4.5,2.51
		c-0.44,0.52-1.4,0.86-2.1,0.84c-3.5-0.12-5.29,1.69-6.24,4.88c-0.58,1.97-1.88,3.38-4.27,3.17c-0.99-0.08-2-0.01-2.81-0.01
		c-4.79,4.79-9.49,9.49-13.96,13.96c-2.48,0.16-4.74-0.57-6.25,1.75c-0.27,0.42-1.53,0.27-2.33,0.27c-3.16,0.03-6.35-0.21-9.49,0.08
		C639.22,585.3,637.41,584.45,636,582.38z"/>
	<path fill="#040404" d="M132.48,669.99c-0.8-0.81-1.68-1.59-2.42-2.48c-0.25-0.31-0.17-0.89-0.26-1.42c-9.76,0-19.39,0-29.19,0
		c-0.91-1.1-1.86-2.23-2.55-3.07c-4.21-0.01-8.01,0.61-11.49-0.19c-3.41-0.79-6.74-0.64-10.07-0.84c-0.85-0.84-1.68-1.66-2.5-2.47
		c0-2.68,0-5.35,0-8.01c0.83-0.82,1.65-1.65,2.49-2.48c7.65,0,15.3,0,23.05,0c0.87,0.91,1.78,1.87,2.74,2.88c10.64,0,21.27,0,32.2,0
		c0.76,1.11,1.61,2.34,2.12,3.08c3.84,0,6.83,0,9.89,0c1.24,1.3,2.5,2.62,3.76,3.94c2.72,0,5.37,0,8.18,0
		c0.91,1.09,1.86,2.22,2.59,3.09c2.83,0,5.16,0,7.48,0c3.79,3.06,3.61,7.3,3.47,11.51c-0.83,0.84-1.65,1.67-2.46,2.49
		c-4.35,0-8.68,0-13.01,0c-0.94-0.94-1.88-1.88-2.9-2.9c-0.39-0.03-0.87-0.08-1.35-0.09c-3.06-0.07-6.47,0.78-9.01-1.1
		C139.82,669.36,136.15,670.19,132.48,669.99z"/>
	<path fill="#FEFEFE" d="M723.93,129.15c-0.72,2.84-1.12,5.33-2,7.62c-0.55,1.44-1.83,2.6-2.91,4.07c0,6.04,0,12.37,0,18.68
		c0.96,0.96,1.9,1.9,2.91,2.91c0,10.24,0,20.55,0,31.06c-1.22,1.06-2.59,2.26-3.84,3.34c0,11.85,0,23.3,0,35
		c-1.88,0.43-3.94-0.23-5.38,1.79c-1.24,1.73-0.13,3.54-1.08,5.37c-1.35,0-2.82-0.03-4.28,0.01c-2.26,0.06-4.23-0.86-5.36-2.63
		c-1.49-2.34-3.17-4.25-5.63-5.6c-1.12-0.62-1.92-1.83-2.86-2.77c-4.33,0-8.66-0.02-12.99,0.01c-1.17,0.01-2.21,0.06-3.1-1.04
		c-0.9-1.11-1.86-1.99-3.64-2.14c-1.17-0.1-2.22-1.79-3.38-2.83c-2.22,0-4.55,0-6.69,0c-1-1.37-1.94-2.65-2.87-3.91
		c-1.79,0-3.43,0-5.32,0c-1.01-2.71-2.7-4.66-6.01-4.09c-0.32,0.06-0.89,0.13-0.96-0.01c-1.42-2.61-4.2-1.31-6.09-2.23
		c-2.07-1-4.68-0.5-6.39-2.95c-1.15-1.64-3.73-2.2-4.44-4.62c-0.21-0.7-1.02-1.48-1.73-1.74c-4.14-1.53-5.49-5.76-8.37-8.5
		c-1.13-1.08-1.67-2.92-2.93-3.67c-1.11-0.67-2.83-0.3-4.45-0.4c0-4.51,0-8.97,0-13.27c-1.81-1.74-3.1-3.2-3.36-5.9
		c-0.2-2.16-1.44-4.05,0.15-6.25c0.47-0.66,0.08-1.94,0.08-2.94c0-4-0.17-8.01,0.06-11.99c0.17-2.97-0.89-5.64-1.54-8.4
		c-0.18-0.77-0.76-1.28-0.07-2.09c1.82-2.15,1.61-4.77,1.54-7.43c1.38-1.82,4.19-3.02,2.92-6c1.45-1.44,2.74-2.74,4.07-4.07
		c0-1.29,0-2.62,0-3.98c2.02-1.96,4.05-3.93,6.15-5.96c0-2.49,0-4.95,0-7.56c1.63,0,3.08,0,4.49,0c2.09-2.25,4.07-4.38,6.51-7.01
		c0.63,0,2.08,0,3.36,0c1.94-1.94,3.73-3.69,5.47-5.48c0.93-0.96,1.77-1.8,3.37-1.63c0.77,0.08,1.78-0.61,2.43-1.22
		c1.96-1.81,3.8-3.74,5.8-5.74c3.1,0.51,5.72-0.15,6.76-3.83c10.72,0,21.51,0,32.35,0c0.58,2.36,2.64,3.25,4.41,4.59
		c1.85,1.41,2.99,3.75,4.81,5.21c1.64,1.31,1.97,4.09,4.95,4.12c0.51,1.68-0.49,4.05,1.81,5.19c0.34,0.17,0.32,1.18,0.35,1.8
		c0.05,1.33,0.12,2.68-0.01,4c-0.33,3.43,0.46,6.4,3.22,8.67c1.6,1.32,0.46,3.12,1,5.27c0.68,0.62,1.8,1.6,2.88,2.62
		c0.35,0.33,0.89,0.76,0.87,1.11c-0.1,1.72,0.05,3.22,1.59,4.38C721.85,127.08,723,128.3,723.93,129.15z"/>
	<path fill="#FEFEFE" d="M348,145.5c-1.3,1.29-2.59,2.59-3.94,3.94c0,2.26,0,4.58,0,7.19c1,0.87,2.17,1.89,3.79,3.31
		c0,2.71,0,6.16,0,10.06c-1.17,0-2.45,0.1-3.72-0.02c-2.04-0.2-3.79,0.54-5.28,1.73c-1.38,1.1-2.42,2.54-4.5,2.52
		c-0.58,0-1.18,1.09-1.77,1.68c-2.25-1.89-2.25-1.89-6.12-1.88c-0.94,0.94-1.88,1.88-2.9,2.9c-2.23,0-4.55,0-6.57,0
		c-2.52,2.52-4.86,4.86-7.03,7.03c-4.04,0-7.69,0-11.49,0c-2.24,2.68-4.52,5.42-6.7,8.03c-5.25,0-10.25,0-15.31,0
		c-0.89,0.94-1.8,1.9-3.01,3.17c-2.02-0.2-4.39-0.03-6.43-0.75c-2.39-0.85-4.45-0.37-6.37,0.66c-1.72,0.92-3.16,2.38-2.7,4.75
		c0.12,0.61,0.02,1.27,0.02,2.28c-4.74-0.94-7.06,1.43-8.14,5.64c-1.19,0.18-2.63,0.04-3.62,0.65c-1.14,0.71-1.89,2.07-3.23,3.65
		c-2.24,0.86-6.06-1.81-8.58,2.29c-1-3.44-5.27-4.73-4.43-8.84c-1.29-1.28-2.6-2.57-4.17-4.13c2.03-1.59,4.4-2.84,5.88-4.78
		c1.55-2.04,3.8-3.19,5.35-5.25c-0.43-1.95,0.41-4.01-0.9-6.11c-0.57-0.91,0.97-2.76,0.9-4.48c-0.19-4.82-0.03-9.66-0.09-14.49
		c-0.01-1.25,0.49-2.61-0.8-3.69c-0.34-0.29-0.43-1.48-0.13-1.85c2.02-2.55,0.37-5.46,1.13-8.41c1.22-1.42,3.57-2.63,2.82-5.46
		c2.72-2.42,3.41-5.88,4.74-9.03c0.36-0.85,1.36-1.44,2.26-2.33c0-1.45,0.07-3.09-0.02-4.73c-0.08-1.34,0.13-2.53,1.01-3.59
		c1.85-2.23,2.61-4.77,1.83-7.52c1.47-1.44,2.78-2.72,4.11-4.02c0-1.32,0-2.64,0-4.12c1.33-1.13,2.72-2.3,4.16-3.52
		c-0.58-3.59,0.25-6.24,3.81-7.49c0.84-0.29,1.87-1.3,1.99-2.09c0.2-1.37,1.12-2.04,1.95-2.7c2.74-2.18,5.53-4.17,7.45-7.32
		c1-1.64,3.19-2.55,4.74-3.7c0-2.93,0-5.59,0-8.55c3.43-2.99,7-6.09,10.52-9.15c2.24,0,4.41,0,7.03,0c0.98-1.19,1.92-2.91,3.36-3.91
		c1.51-1.05,2.86-1.96,3.33-3.96c2.08,0,4.2,0,6.13,0c0.99,1.33,1.93,2.61,2.82,3.82c2.84,0,5.49,0,8.28,0
		c1.05,1.2,2.13,2.45,3.49,4c-0.14,2.31-0.38,5.22,3.38,6.04c2.86,4.89,8.97,6.75,11.29,12.15c0.69,1.6,2.88,1.5,3.6,3.42
		c0.48,1.28,2.28,2.06,3.75,3.28c-1.56,3.86-0.91,8.28-1.01,12.65c0.94,0.94,1.88,1.88,2.85,2.85c0.63,3.28-0.77,6.83,1.25,10.01
		c-1.39,1.25-2.75,2.46-3.99,3.58c0,2.62,0,4.92,0,7.58c0.89,0.71,2.04,1.64,2.44,1.97c0.6,3.34,1.18,5.66,1.39,8.02
		C348.16,140.82,348,143.17,348,145.5z"/>
	<path fill="#FEFEFE" d="M258,437.49c0.82-0.79,1.65-1.6,2.6-2.51c0.14,0.43,0.39,0.84,0.39,1.25c0.02,6.32,0.02,12.64,0.02,19.21
		c-1,0.81-2.15,1.74-2.98,2.41c0,3.92,0,7.24,0,10.53c-2.87,2.98-2.87,2.98-3.48,6.58c-0.12-0.09-0.26-0.16-0.35-0.27
		c-0.09-0.12-0.19-0.27-0.19-0.41c-0.01-7.48-0.01-14.96-0.01-22.19c1.52-1.5,2.93-2.88,4-3.94C258,444.17,258,440.84,258,437.49z"
		/>
	<path fill="#FEFEFE" d="M572.91,412.31c0,8.11,0,16.21,0,24.31c-1.32,1.31-2.62,2.59-3.91,3.87c0,3.68,0,7.34,0,11.01
		c-0.94,0.93-1.89,1.86-2.91,2.87c0,4.24,0,8.54,0,13c-1.1,0.9-2.24,1.84-3.23,2.67c0,3.88,0,7.33,0,10.99
		c-2.13-1.31-3.14-2.78-2.91-5.22c0.25-2.64,0.06-5.32,0.06-7.98c0-3.49,0.17-7-0.05-10.47c-0.2-3.19-0.81-6.35-1.27-9.7
		c1.32-0.94,2.54-1.8,3.3-2.34c0-4.11,0-7.43,0-10.83c1.3-1.23,2.62-2.48,4.02-3.8c0-1.48,0-2.93,0-4.32c3.04-0.95,4.4-2.82,4-5.87
		c-0.08-0.65,0-1.33-0.02-1.99c-0.05-1.83-0.2-3.63,1.73-4.81c0.4-0.25,0.43-1.11,0.63-1.68
		C572.54,412.11,572.72,412.21,572.91,412.31z"/>
	<path fill="#FEFEFE" d="M549.03,425.12c0,5.31,0,10.3,0,15.37c-0.9,0.45-1.8,0.9-2.71,1.34c-2.09-8.27-1.08-16.66-1.35-25.04
		c1-1.22,2.46-2.32,2.93-3.74c0.78-2.39,0.93-4.99,1.39-7.85c0.65-0.64,1.59-1.58,2.62-2.59c0-2.23,0-4.54,0-6.81
		c1.52-2.44,5.21-3.58,3.9-7.58c2.33,0,4.45,0,6.61,0c0.73,0.95,1.4,2.35,2.51,3.08c1.11,0.73,2.66,0.77,4.03,1.12
		c0,0.68,0,1.34,0,2.35c-2.32,0.52-4.77,0.05-7.69,0.31c-0.38,0.63-0.98,1.63-1.58,2.64c-0.21-0.15-0.42-0.31-0.63-0.46
		c0,3.79,0,7.57,0,11.18c-1.47,1.47-2.77,2.77-4.06,4.06c0,1.83-0.26,3.71,0.06,5.49c0.46,2.47-1.08,3.7-2.56,4.95
		C551.43,423.85,550.11,424.46,549.03,425.12z"/>
</g>
</svg>
